<svg width="485.29002380371094" height="84.72560120758209" viewBox="0 0 370.18518518518516 64.62972827490275" class="css-1j8o68f"><defs id="SvgjsDefs3009"></defs><g id="SvgjsG3010" featurekey="v37d4h-0" transform="matrix(21.128084661006024,0,0,21.128084661006024,-20.427239967605896,-20.50490045221043)" fill="#ffffff"><title xmlns="http://www.w3.org/2000/svg">abstract</title><path xmlns="http://www.w3.org/2000/svg" d="M2.52319,1.481c.07051-.04584.13985-.0936.21175-.13714.17382-.10525.34885-.20849.52332-.31267a.223.223,0,0,0,.03638-.02418A.13382.13382,0,0,1,3.46128.99335a.10627.10627,0,0,1,.03981.16023.0712.0712,0,0,0-.00889.054.11864.11864,0,0,1-.03957.14543c-.07111.05572-.14493.108-.21772.16152-.02725.02-.05487.0396-.08232.05938L3.1598,1.584c.077-.04651.15368-.09365.23122-.13928.04408-.02593.0896-.0494.1345-.07393L3.54124,1.363a.129.129,0,0,1,.16657.03071.11877.11877,0,0,1-.04344.162c-.11259.08856-.23349.16673-.34445.25717-.28337.231-.56319.46627-.84431.7a.04571.04571,0,0,0-.01669.02761c.03146-.0214.06322-.04234.09432-.06426a6.888,6.888,0,0,1,.76315-.49155,1.708,1.708,0,0,1,.25407-.106.12576.12576,0,0,1,.15821.05078.13612.13612,0,0,1-.0251.16593c-.03636.03933-.08216.06981-.12244.10571-.012.01073-.02941.02791-.02767.03968A.17843.17843,0,0,1,3.459,2.4121c-.18418.14192-.37061.28094-.556.42131-.01705.01291-.03275.02761-.04908.04148l.00545.00934c.04356-.01813.08842-.03369.13046-.05484.15407-.07753.30646-.15841.4611-.23478a.92889.92889,0,0,1,.16748-.063.10385.10385,0,0,1,.12688.05283.106.106,0,0,1-.04127.13476c-.04029.03047-.08384.05663-.12595.0847l.00677.0124c.06232-.03049.12454-.06122.187-.09138.03158-.01524.063-.03128.09564-.04376a.10758.10758,0,0,1,.11392.18233c-.07115.05832-.14634.11187-.22139.16524-.10609.07544-.21368.14875-.32044.22323a.08439.08439,0,0,0-.03258.0386c.0647-.02342.13006-.04517.19392-.0707.072-.02877.14224-.0618.214-.0911a.28411.28411,0,0,1,.07186-.01789.0874.0874,0,0,1,.09358.0435.09062.09062,0,0,1-.01082.10284l-.02325.03207c.01634.00593.02975.01014.04263.01561a.0693.0693,0,0,1,.04518.073.065.065,0,0,1-.05632.06889.69207.69207,0,0,0-.24954.10148c-.23219.11428-.46285.23169-.69482.34645a1.31235,1.31235,0,0,1-.13439.05356A.12389.12389,0,0,1,2.74613,3.906c-.018-.023-.0328-.02082-.056-.01207-.11622.04389-.23235.08825-.35013.12762a.26071.26071,0,0,1-.10368.00482A.1082.1082,0,0,1,2.13913,3.949a.113.113,0,0,1,.02939-.12126.43336.43336,0,0,0,.06275-.06884.73682.73682,0,0,1-.08348.03129.52516.52516,0,0,1-.13173.02389.113.113,0,0,1-.09638-.1783l.01147-.02288c-.01768,0-.031-.00109-.04407.00019a.14331.14331,0,0,1-.15078-.05749.04123.04123,0,0,0-.03946-.005c-.07614.04622-.14878.09846-.22638.14191a1.20816,1.20816,0,0,1-.20169.09153.12521.12521,0,0,1-.14589-.05443.09926.09926,0,0,0-.052-.03289.12266.12266,0,0,1-.07767-.19724,2.19992,2.19992,0,0,1,.18229-.18905q.1752-.17542.35142-.34983a.06507.06507,0,0,0,.02031-.037.53773.53773,0,0,1-.056.02489.55694.55694,0,0,1-.11713.03228.11433.11433,0,0,1-.12927-.14008c.0045-.02827-.00522-.0386-.02811-.04955A.12588.12588,0,0,1,1.145,2.62127.26451.26451,0,0,1,1.24855,2.489c.04307-.03186.08495-.06533.12656-.09748a.1515.1515,0,0,1,.03-.2243c.09379-.09592.17793-.20194.27664-.29223.13575-.12418.2799-.23937.42287-.35542A3.78,3.78,0,0,1,2.81145,1.056a.763.763,0,0,1,.08013-.03543.06585.06585,0,0,1,.08147.02512.06318.06318,0,0,1-.00743.08093.20419.20419,0,0,1-.04266.03728q-.18786.14075-.37606.281c-.01089.00816-.02049.018-.03069.02713Z"></path></g><g id="SvgjsG3011" featurekey="UxBHKT-0" transform="matrix(2.398933155044115,0,0,2.398933155044115,81.68947197150301,-2.083070901767698)" fill="#ffffff"><path d="M4.34 10.1 q0.38 -0.52 1.31 -0.93 t2.03 -0.41 q1.7 0 2.95 0.76 t1.91 2.07 t0.66 2.91 t-0.66 2.91 t-1.91 2.07 t-2.95 0.76 q-1.14 0 -2.01 -0.39 t-1.33 -0.99 l0 4.68 l-2.96 0 l0 -14.54 l2.96 0 l0 1.1 z M5.04 16.75 q0.82 0.87 2.2 0.87 q1.4 0 2.21 -0.87 t0.81 -2.25 q0 -1.34 -0.83 -2.22 t-2.19 -0.88 q-1.4 0 -2.21 0.83 t-0.81 2.27 q0 1.38 0.82 2.25 z M20.88 11.87 q-0.86 0.21 -1.58 0.99 t-0.72 2.28 l0 4.86 l-2.98 0 l0 -11 l2.98 0 l0 1.46 q0.74 -0.98 1.81 -1.33 t1.95 -0.33 l0 2.92 q-0.6 -0.06 -1.46 0.15 z M26.330000000000005 19.49 q-1.37 -0.77 -2.17 -2.09 t-0.8 -2.88 q0 -1.54 0.8 -2.86 t2.17 -2.09 t2.99 -0.77 t3 0.77 t2.19 2.09 t0.81 2.86 q0 1.56 -0.81 2.88 t-2.19 2.09 t-3 0.77 t-2.99 -0.77 z M27.800000000000004 11.83 q-0.7 0.41 -1.1 1.12 t-0.4 1.57 q0 0.9 0.39 1.61 t1.08 1.12 t1.55 0.41 q0.84 0 1.53 -0.41 t1.09 -1.13 t0.4 -1.6 q0 -0.86 -0.4 -1.57 t-1.09 -1.12 t-1.53 -0.41 q-0.82 0 -1.52 0.41 z M40.81 7.369999999999999 q-0.49 0.47 -1.17 0.47 t-1.18 -0.48 t-0.5 -1.14 t0.5 -1.13 t1.18 -0.47 t1.17 0.47 t0.49 1.13 q0 0.68 -0.49 1.15 z M41.160000000000004 19.9 q0 2.28 -1.1 3.23 t-3.26 0.95 q-0.52 0 -1.32 -0.2 l0.16 -2.54 q0.56 0.2 1.12 0.2 q0.64 0 0.95 -0.24 t0.38 -0.57 t0.07 -0.83 l0 -10.88 l3 0 l0 10.88 z M46.95 19.74 q-1.37 -0.54 -2.35 -1.83 t-0.98 -3.37 t0.99 -3.36 t2.37 -1.82 t2.62 -0.54 q1.44 0 2.74 0.64 t2.13 1.88 t0.87 2.94 q0 0.52 -0.02 0.9 t-0.04 0.48 l-8.68 0 q0.24 1.16 1.2 1.58 t1.8 0.42 q1.08 0 1.72 -0.39 t1.1 -0.89 l2.32 1.34 q-1.88 2.56 -5.14 2.56 q-1.28 0 -2.65 -0.54 z M47.56 12.05 q-0.78 0.61 -0.88 1.49 l5.5 0 q-0.06 -0.52 -0.4 -1 t-0.91 -0.79 t-1.29 -0.31 q-1.24 0 -2.02 0.61 z M60.24000000000001 19.51 q-1.38 -0.77 -2.19 -2.09 t-0.81 -2.88 t0.81 -2.87 t2.18 -2.08 t2.99 -0.77 q1.74 0 3.15 0.83 t2.25 2.37 l-2.7 1.06 q-0.48 -0.82 -1.18 -1.23 t-1.52 -0.41 q-1.3 0 -2.15 0.88 t-0.85 2.22 t0.86 2.22 t2.16 0.88 q1.8 0 2.78 -1.6 l2.54 1 q-1.58 3.24 -5.32 3.24 q-1.62 0 -3 -0.77 z M74.46000000000001 16.08 q0 0.7 0.24 1.17 t1.12 0.47 q0.4 0 0.76 -0.04 l0 2.52 q-0.72 0.08 -1.34 0.08 q-1.28 0 -2.07 -0.21 t-1.23 -0.81 t-0.44 -1.72 l0 -6.1 l-1.34 0 l0 -2.62 l1.34 0 l0 -2.94 l2.96 0 l0 2.94 l2.2 0 l0 2.62 l-2.2 0 l0 4.64 z M82.46000000000001 20 l-3 0 l0 -8.26 l-1.24 0 l0 -2.56 l1.24 0 q0.08 -2.14 1.22 -3.26 t3.16 -1.12 q0.6 0 1.32 0.18 l-0.16 2.42 q-0.38 -0.12 -0.82 -0.12 q-1.08 0 -1.4 0.54 t-0.32 1.36 l1.98 0 l0 2.56 l-1.98 0 l0 8.26 z M86.78000000000002 4.880000000000001 l3 0 l0 15.12 l-3 0 l0 -15.12 z M95.09 19.49 q-1.37 -0.77 -2.17 -2.09 t-0.8 -2.88 q0 -1.54 0.8 -2.86 t2.17 -2.09 t2.99 -0.77 t3 0.77 t2.19 2.09 t0.81 2.86 q0 1.56 -0.81 2.88 t-2.19 2.09 t-3 0.77 t-2.99 -0.77 z M96.56 11.83 q-0.7 0.41 -1.1 1.12 t-0.4 1.57 q0 0.9 0.39 1.61 t1.08 1.12 t1.55 0.41 q0.84 0 1.53 -0.41 t1.09 -1.13 t0.4 -1.6 q0 -0.86 -0.4 -1.57 t-1.09 -1.12 t-1.53 -0.41 q-0.82 0 -1.52 0.41 z M104.82 9.04 l3.18 0 l1.84 4.88 l2.66 -5.48 l2.7 5.5 l1.9 -4.9 l3.16 0 l-4.72 11.42 l-3.04 -5.84 l-3 5.84 z"></path></g></svg>