<?xml version="1.0" encoding="utf-8"?>
<svg viewBox="0.0001 -0.0002 65.0876 40.865" xmlns="http://www.w3.org/2000/svg">
  <path d="M 9.352 37.289 C 7.175 22.262 15.622 7.319 29.964 2.018 C 36.875 -0.537 44.867 -0.715 51.826 1.764 C 59.216 4.396 66.444 10.703 64.87 19.358 C 64.125 23.457 60.942 26.669 57.214 28.277 C 52.474 30.322 47.274 29.807 42.359 28.722 C 39.218 28.028 40.547 23.207 43.688 23.9 C 47.201 24.676 50.936 25.189 54.426 24.027 C 56.797 23.237 59.103 21.475 59.825 18.995 C 61.685 12.606 54.923 8.007 49.762 6.336 C 38.251 2.609 25.001 6.989 18.441 17.257 C 14.944 22.731 13.235 29.487 14.173 35.96 C 14.367 37.295 13.843 38.646 12.427 39.035 C 11.252 39.358 9.547 38.634 9.352 37.289 Z" fill="#01010C" origin="undraw" style="transform-origin: 37.05px 19.556px;"/>
  <path d="M 4.666 22.953 C 7.799 27.677 10.932 32.402 14.065 37.127 L 10.139 36.621 C 14.193 32.935 18.247 29.25 22.302 25.564 C 23.3 24.656 24.851 24.577 25.837 25.564 C 26.759 26.486 26.84 28.188 25.837 29.1 C 21.783 32.785 17.729 36.471 13.675 40.156 C 12.436 41.282 10.665 41.032 9.748 39.65 L 0.348 25.476 C -0.398 24.35 0.127 22.71 1.245 22.056 C 2.469 21.34 3.917 21.824 4.666 22.953 Z" fill="#01010C" style="transform-origin: 13.28px 31.291px;"/>
</svg>